:SAMPLES-PER-SECOND 30
:FULLY-SPECIFIED
:DEGREES
95
root  2.25081 39.4022 1.87639 28.9576 -80.8447 -31.1141
RightUpLeg  -4.43645 -6.69822 -4.54227
RightLeg  10.7663 -10.6924 -3.07291
RightFoot  0.0817831 -1.34908 13.4342
RightToes  -1.33073e-015 0 -3.6325e-017
Spine  11.1169 -1.68556 5.06969
Spine1  -1.29549 -1.60594 2.47462
HEad  -11.0042 -1.99461 -1.12983
LeftShoulder1  1.86842 -4.29357 -17.3163
LeftArm  -1.84191 19.1878 -45.8913
LeftForeArm  30.6293 -61.3915 -17.8639
LeftHand  -1.2454 0.422145 28.7232
RightShoulder  1.66444 2.60177 20.974
RightArm  -9.15622 -23.3786 45.2436
RightForeArm  33.7384 51.8776 11.6303
RightHand  -0.434746 -0.897419 -10.9964
LeftUpLeg  -11.1841 9.23818 15.9766
LeftLeg  23.172 -0.378933 0.165188
LeftFoot  -7.01962 0.689624 -17.1014
LeftToes  -4.0021e-011 8.38769e-011 -3.99229e-011
96
root  2.33376 39.3302 2.0605 32.5996 -80.4973 -35.8551
RightUpLeg  -3.73396 -6.07933 -3.97146
RightLeg  11.4543 -10.9717 -3.40843
RightFoot  0.0693728 -1.39078 13.8622
RightToes  -1.33073e-015 0 -3.6325e-017
Spine  12.1317 -1.13152 5.28079
Spine1  -0.191347 -1.17756 3.29213
HEad  -12.5316 -2.5437 -1.93391
LeftShoulder1  1.79887 -4.20889 -16.6218
LeftArm  -6.92743 18.191 -47.9345
LeftForeArm  38.4959 -67.2921 -23.2543
LeftHand  -1.21084 1.63968 36.7997
RightShoulder  1.56113 2.37621 20.2171
RightArm  -14.4974 -23.8853 42.7713
RightForeArm  29.4221 58.9035 16.0473
RightHand  -1.08929 1.24311 -18.8963
LeftUpLeg  -10.8714 10.977 15.6526
LeftLeg  25.0123 0.590526 0.625712
LeftFoot  -6.8026 0.610533 -14.3309
LeftToes  -4.0021e-011 8.38769e-011 -3.99229e-011
97
root  2.42692 39.315 2.21729 31.9668 -80.9686 -36.819
RightUpLeg  -2.42512 -5.42458 -4.47294
RightLeg  11.8003 -10.6958 -3.44857
RightFoot  0.152009 -1.40782 13.9357
RightToes  -1.33073e-015 0 -3.6325e-017
Spine  14.0686 -0.612926 3.57376
Spine1  0.325125 -1.05236 4.32758
HEad  -13.3022 -2.05209 -2.69237
LeftShoulder1  1.83082 -4.29343 -16.7898
LeftArm  -12.6092 17.0601 -49.0686
LeftForeArm  46.1541 -71.1055 -28.5136
LeftHand  -0.656063 3.72979 45.2346
RightShoulder  1.5346 2.35005 19.8549
RightArm  -20.0041 -22.7336 40.6256
RightForeArm  23.0485 62.6221 19.8966
RightHand  -2.11377 3.4269 -27.6041
LeftUpLeg  -8.48585 9.83642 14.9411
LeftLeg  23.6651 3.77892 2.14016
LeftFoot  -6.69262 0.540882 -12.2971
LeftToes  -4.0021e-011 8.38769e-011 -3.99229e-011
98
root  2.49049 39.2949 2.34023 24.4433 -81.3988 -30.4923
RightUpLeg  -1.88271 -6.11419 -6.29703
RightLeg  13.2638 -9.80132 -3.13117
RightFoot  0.0436049 -1.38281 13.8183
RightToes  -1.33073e-015 0 -3.6325e-017
Spine  15.9661 -0.497371 0.603115
Spine1  -0.00119397 -1.56829 5.6194
HEad  -13.4468 -0.779359 -3.0514
LeftShoulder1  1.93188 -4.40954 -17.802
LeftArm  -18.3967 16.3349 -48.2814
LeftForeArm  49.2116 -73.3126 -33.3776
LeftHand  0.174825 5.71029 50.646
RightShoulder  1.55489 2.38621 20.0522
RightArm  -25.6712 -20.7869 39.5157
RightForeArm  16.1011 64.1173 22.3931
RightHand  -3.08976 4.80816 -34.5184
LeftUpLeg  -6.55079 6.74349 13.4287
LeftLeg  22.264 6.95687 3.45492
LeftFoot  -6.72507 0.534674 -12.2277
LeftToes  -4.0021e-011 8.38769e-011 -3.99229e-011
99
root  2.45787 39.3713 2.42182 15.7721 -81.9568 -21.7575
RightUpLeg  -2.70027 -9.15997 -8.64953
RightLeg  14.9059 -6.31474 -2.07871
RightFoot  0.851212 -1.51412 14.1486
RightToes  -1.33073e-015 0 -3.6325e-017
Spine  16.5268 -0.551394 -1.69767
Spine1  -1.03489 -1.94866 5.8908
HEad  -13.2554 0.418849 -2.82691
LeftShoulder1  2.03061 -4.51308 -18.794
LeftArm  -23.2996 16.5969 -46.1694
LeftForeArm  45.9971 -74.0616 -36.6536
LeftHand  0.617823 6.60114 52.2325
RightShoulder  1.56627 2.33568 20.5094
RightArm  -31.2692 -19.822 39.859
RightForeArm  10.3855 65.1678 24.4418
RightHand  -3.61981 5.15128 -38.7167
LeftUpLeg  -5.63784 5.42876 11.658
LeftLeg  20.7765 8.16576 3.80344
LeftFoot  -6.03204 0.646817 -13.1176
LeftToes  -4.0021e-011 8.38769e-011 -3.99229e-011
100
root  2.29414 39.5855 2.46339 13.1245 -83.4793 -17.9034
RightUpLeg  -4.40408 -12.0901 -10.2822
RightLeg  15.3391 -0.58124 -0.317751
RightFoot  2.33031 -1.8717 15.6493
RightToes  -1.33073e-015 0 -3.6325e-017
Spine  15.8278 -0.41089 -2.09192
Spine1  -2.70514 -1.48632 4.19264
HEad  -12.7378 1.15218 -2.29518
LeftShoulder1  2.04845 -4.48828 -19.1183
LeftArm  -26.7555 18.4798 -43.7278
LeftForeArm  42.1816 -74.5669 -39.6975
LeftHand  0.640872 6.64718 52.1652
RightShoulder  1.55415 2.22771 20.8259
RightArm  -36.1488 -20.8389 40.9536
RightForeArm  8.44472 67.3263 27.9422
RightHand  -3.74587 4.96846 -40.5589
LeftUpLeg  -4.65765 7.64489 10.5316
LeftLeg  17.6069 7.66394 3.4542
LeftFoot  -4.61844 0.832615 -13.6625
LeftToes  -4.0021e-011 8.38769e-011 -3.99229e-011
101
root  2.03955 39.8299 2.4585 20.1467 -85.4278 -23.5158
RightUpLeg  -5.84948 -12.2457 -10.794
RightLeg  14.2981 3.53711 0.939429
RightFoot  2.21392 -2.10871 17.7838
RightToes  -1.33073e-015 0 -3.6325e-017
Spine  14.9987 -0.147589 -0.971104
Spine1  -4.86693 -0.648283 1.82884
HEad  -11.8054 1.76263 -2.01485
LeftShoulder1  1.94898 -4.10669 -19.0949
LeftArm  -29.0766 21.5853 -41.1051
LeftForeArm  45.7727 -76.244 -47.3189
LeftHand  0.650924 6.66655 52.2031
RightShoulder  1.52122 2.12484 20.7319
RightArm  -39.7083 -22.8318 41.1953
RightForeArm  11.9482 70.8271 34.6669
RightHand  -3.70809 4.74533 -40.9852
LeftUpLeg  -3.12526 10.7496 10.5749
LeftLeg  13.3196 7.20963 2.90686
LeftFoot  -3.18529 1.02801 -14.088
LeftToes  -4.0021e-011 8.38769e-011 -3.99229e-011
102
root  1.78059 40.0309 2.38095 31.5365 -86.2854 -34.0334
RightUpLeg  -6.03739 -10.5865 -11.1326
RightLeg  12.2447 1.89771 0.410886
RightFoot  -0.380771 -1.79602 18.4989
RightToes  -1.33073e-015 0 -3.6325e-017
Spine  14.712 -0.108831 0.109134
Spine1  -6.94473 -0.302331 0.699219
HEad  -10.649 2.43638 -2.1459
LeftShoulder1  1.76679 -3.43264 -18.9403
LeftArm  -31.1386 24.1681 -38.1952
LeftForeArm  59.8475 -78.5588 -64.0039
LeftHand  0.759448 6.88703 52.2789
RightShoulder  1.4447 1.96026 20.1024
RightArm  -42.2859 -24.017 39.4969
RightForeArm  20.8023 74.5182 45.8437
RightHand  -3.66522 4.53076 -41.3523
LeftUpLeg  -1.46659 11.8271 11.3694
LeftLeg  9.51082 7.58665 2.24457
LeftFoot  -1.84621 1.27078 -15.0865
LeftToes  -4.0021e-011 8.38769e-011 -3.99229e-011
103
root  1.59992 40.1199 2.21228 30.9004 -85.9654 -33.0653
RightUpLeg  -5.67436 -9.89577 -12.1602
RightLeg  11.1848 -5.54163 -1.55897
RightFoot  -3.75459 -1.1213 16.337
RightToes  -1.33073e-015 0 -3.6325e-017
Spine  14.8142 -0.333842 0.353799
Spine1  -8.49273 -0.482645 0.724111
HEad  -9.69582 2.75721 -2.29193
LeftShoulder1  1.54904 -2.80819 -17.9338
LeftArm  -33.4623 24.4187 -35.4821
LeftForeArm  80.4533 -79.5618 -87.8363
LeftHand  0.888411 7.15468 52.1944
RightShoulder  1.29814 1.62686 18.876
RightArm  -45.1407 -23.7762 36.4847
RightForeArm  34.033 77.1832 61.553
RightHand  -3.67741 4.316 -42.3109
LeftUpLeg  -0.661322 12.105 11.925
LeftLeg  7.65809 7.10314 1.73568
LeftFoot  -1.1209 1.46951 -16.2844
LeftToes  -4.0021e-011 8.38769e-011 -3.99229e-011
104
root  1.5616 39.9798 1.94459 22.4588 -85.2932 -24.3122
RightUpLeg  -6.41898 -10.9896 -13.7047
RightLeg  13.1169 -13.8961 -3.99936
RightFoot  -6.81291 -0.55155 12.6719
RightToes  -1.33073e-015 0 -3.6325e-017
Spine  15.1837 -0.599042 0.462711
Spine1  -9.73993 -0.680294 0.491884
HEad  -9.20108 2.41385 -2.08802
LeftShoulder1  1.26807 -2.16455 -15.5564
LeftArm  -35.8265 21.4512 -33.0807
LeftForeArm  97.6038 -78.8938 -108.173
LeftHand  1.01661 7.4401 51.7698
RightShoulder  1.07656 1.05499 17.0504
RightArm  -49.0066 -22.5489 33.3392
RightForeArm  49.4427 78.4134 79.5843
RightHand  -3.66676 4.16346 -42.813
LeftUpLeg  -2.08695 12.3108 12.0527
LeftLeg  9.57955 5.92012 1.59619
LeftFoot  -2.24697 1.34378 -16.6101
LeftToes  -4.0021e-011 8.38769e-011 -3.99229e-011
105
root  1.67237 39.4883 1.58447 18.8998 -84.6693 -20.2662
RightUpLeg  -8.85001 -13.1034 -14.8293
RightLeg  18.3118 -17.5565 -6.5261
RightFoot  -10.8267 -0.114193 11.0387
RightToes  -1.33073e-015 0 -3.6325e-017
Spine  16.1884 -0.78559 1.34182
Spine1  -11.2442 -0.640101 -0.459891
HEad  -8.99924 1.6232 -1.58347
LeftShoulder1  0.883545 -1.01664 -12.4311
LeftArm  -38.2359 15.0426 -29.9876
LeftForeArm  106.175 -77.7777 -119.454
LeftHand  0.896731 7.30191 49.2697
RightShoulder  0.773158 0.122679 14.526
RightArm  -53.4671 -20.2768 30.098
RightForeArm  60.9947 78.4878 93.7477
RightHand  -3.46226 3.952 -41.4506
LeftUpLeg  -6.72212 12.7427 12.4189
LeftLeg  16.989 4.26939 1.78651
LeftFoot  -5.4057 0.860913 -15.841
LeftToes  -4.0021e-011 8.38769e-011 -3.99229e-011
